<?xml version="1.0" encoding="UTF-8" standalone="no"?>
<!DOCTYPE svg PUBLIC "-//W3C//DTD SVG 1.1//EN" "http://www.w3.org/Graphics/SVG/1.1/DTD/svg11.dtd">
<svg version="1.1" xmlns="http://www.w3.org/2000/svg" xmlns:xlink="http://www.w3.org/1999/xlink" preserveAspectRatio="xMidYMid meet" viewBox="0 0 640 640" width="640" height="640"><defs><path d="M-269.06 661.82L-269.52 662.05L-269.75 661.82L-269.75 662.05L-416.08 720.53L-562.42 662.05L-562.42 661.82L-562.65 662.05L-563.1 661.82L-563.1 662.05L-709.66 720.76L-709.66 1179.71L-562.65 1123.52L-416.54 1179.48L-416.54 1179.71L-415.63 1179.71L-415.63 1179.48L-269.52 1123.52L-122.5 1179.71L-122.5 720.76L-269.06 662.05L-269.06 661.82Z" id="b2UhD7Pl1p"></path><linearGradient id="gradientbQIbUZZCn" gradientUnits="userSpaceOnUse" x1="-416.08" y1="1179.81" x2="-416.08" y2="661.82"><stop style="stop-color: #2075bc;stop-opacity: 1" offset="0%"></stop><stop style="stop-color: #29aae1;stop-opacity: 1" offset="100%"></stop></linearGradient><path d="M-709.66 1179.71L-562.42 1123.52L-562.42 661.82L-709.66 720.76L-709.66 1179.71Z" id="aB6r8PzK1"></path><linearGradient id="gradientc2SZMcCMAE" gradientUnits="userSpaceOnUse" x1="-636.01" y1="1179.81" x2="-636.01" y2="661.82"><stop style="stop-color: #0a6aa8;stop-opacity: 1" offset="0%"></stop><stop style="stop-color: #1699c8;stop-opacity: 1" offset="100%"></stop></linearGradient><path d="M-122.27 1179.71L-269.75 1123.52L-269.75 661.82L-122.27 720.76L-122.27 1179.71Z" id="c3OTIoL9TA"></path><linearGradient id="gradienta97EWD0dj" gradientUnits="userSpaceOnUse" x1="-196.04" y1="1179.81" x2="-196.04" y2="661.82"><stop style="stop-color: #2075bc;stop-opacity: 1" offset="0%"></stop><stop style="stop-color: #29aae1;stop-opacity: 1" offset="100%"></stop></linearGradient><path d="M-417.23 1179.71L-269.75 1123.52L-269.75 661.82L-417.23 720.76L-417.23 1179.71Z" id="c7cseW809R"></path><linearGradient id="gradienta45HVL8oAU" gradientUnits="userSpaceOnUse" x1="-343.46" y1="1179.81" x2="-343.46" y2="661.82"><stop style="stop-color: #0a6aa8;stop-opacity: 1" offset="0%"></stop><stop style="stop-color: #1699c8;stop-opacity: 1" offset="100%"></stop></linearGradient><path d="M-122.5 1179.71L-269.75 1123.52L-269.75 661.82L-122.5 720.76L-122.5 1179.71Z" id="abNrkcIrc"></path><linearGradient id="gradiente7isWmLT7" gradientUnits="userSpaceOnUse" x1="-196.16" y1="1179.81" x2="-196.16" y2="661.82"><stop style="stop-color: #2075bc;stop-opacity: 1" offset="0%"></stop><stop style="stop-color: #29aae1;stop-opacity: 1" offset="100%"></stop></linearGradient><path d="M-564.03 1007.5L-564.82 1007.49L-565.96 1007.7L-568.61 1007.92L-567.06 1006.21L-565.51 1004.57L-563.96 1003.05L-562.42 1001.73L-562.42 1007.92L-564.03 1007.5Z" id="a6fJVPr54R"></path><path d="M597.76 481C526.13 598.16 400.75 656.63 275.14 638.18C289.97 612.39 408.61 406.06 423.44 380.27C456.06 323.42 436.7 250.57 380.16 217.96C361.74 207.03 341.33 201.52 321.3 201.52C341.08 201.52 439.96 201.52 617.96 201.52C652.25 309.73 645.52 402.89 597.76 481Z" id="bUSSahGTx"></path><path d="M321.35 201.52C280.57 201.52 240.91 223.42 219.1 261.55C197.74 298.45 198.63 342.87 217.88 378.04C203.17 352.46 85.46 147.78 70.74 122.2C167.23 -0.87 341.83 -37.77 480.75 42.83C545.61 80.34 592.33 136.86 617.96 201.52C558.64 201.52 351.01 201.52 321.35 201.52Z" id="blgnxzoDb"></path><path d="M275.14 638.46C236.25 632.83 197.85 619.79 161.79 598.94C8.94 510.26 -43.33 314.17 44.83 160.83C52.71 147 61.37 134.35 70.69 122.31C80.5 139.38 129.54 224.72 217.83 378.32C218.56 379.59 218.96 380.3 219.05 380.44C229.03 397.89 243.68 413.1 262.32 423.75C318.69 456.53 390.93 437.07 423.44 380.44C393.78 432.04 289.97 612.66 275.14 638.46Z" id="h3oz7aOCMa"></path><path d="M594.89 287.38C574.02 258.57 498.02 253.54 463.78 215.79C469.91 197.05 457.66 181.67 445.13 169.92C426.48 156.22 400.32 162.37 380.27 167.68C357.45 162.93 336.29 154.54 314.3 148.11C264.75 142.8 215.76 177.75 215.76 177.75C180.41 200.13 125.01 246.83 98.57 274.24C104.97 275.07 111.93 270.32 119.17 269.48C124.26 268.17 165.01 257.65 170.11 256.34C148.95 273.96 104.41 304.72 91.61 329.05C107.48 323.74 140.6 305.28 157.3 303.88C142.83 316.74 112.77 341.07 103.02 356.46C104.14 357.01 103.3 358.41 103.58 359.25C116.11 352.26 146.17 334.36 159.81 333.24C145.61 348.07 119.72 376.31 113.88 395.33C126.13 387.22 157.03 371 170.39 365.96C167.33 373.51 160.37 379.11 155.91 386.66C149.79 397.01 135.31 408.75 134.76 421.34C145.61 411.27 158.97 402.6 172.34 395.33C166.21 407.91 155.36 418.26 152.29 433.08C161.2 424.41 177.62 420.22 189.04 416.3C188.9 416.44 187.79 417.56 187.65 417.7C186.81 418.54 174.01 427.49 165.38 437.56C173.17 437 167.33 436.16 177.07 438.4C177.6 438.42 181.83 438.65 182.36 438.68C179.85 440.07 176.79 441.47 173.73 443.15C169 445.67 163.98 448.46 158.7 451.26C179.85 478.39 206.02 499.92 235.8 514.74C274.77 534.04 317.64 540.19 360.23 535.16C360.06 534.4 358.73 528.36 358.56 527.61C357.73 524.53 356.89 521.45 355.78 518.66C355.78 518.38 355.78 518.38 355.5 518.1C369.97 490.97 362.46 444.27 399.76 425.53C424.81 412.67 427.87 405.68 456.55 410.99C472.13 414.07 506.37 425.81 522.52 422.18C537.27 413.79 544.79 410.15 557.59 400.36C573.74 403.16 578.75 401.76 584.87 393.09C579.58 400.64 595.17 364.01 601.85 350.02C601.91 349.56 602.19 347.23 602.69 343.03C599.72 309.1 597.12 290.55 594.89 287.38Z" id="c1q62Wpd4e"></path></defs><g><g><g><use xlink:href="#b2UhD7Pl1p" opacity="1" fill="url(#gradientbQIbUZZCn)"></use><g><use xlink:href="#b2UhD7Pl1p" opacity="1" fill-opacity="0" stroke="#000000" stroke-width="1" stroke-opacity="0"></use></g></g><g><use xlink:href="#aB6r8PzK1" opacity="1" fill="url(#gradientc2SZMcCMAE)"></use><g><use xlink:href="#aB6r8PzK1" opacity="1" fill-opacity="0" stroke="#000000" stroke-width="1" stroke-opacity="0"></use></g></g><g><use xlink:href="#c3OTIoL9TA" opacity="1" fill="url(#gradienta97EWD0dj)"></use><g><use xlink:href="#c3OTIoL9TA" opacity="1" fill-opacity="0" stroke="#000000" stroke-width="1" stroke-opacity="0"></use></g></g><g><use xlink:href="#c7cseW809R" opacity="1" fill="url(#gradienta45HVL8oAU)"></use><g><use xlink:href="#c7cseW809R" opacity="1" fill-opacity="0" stroke="#000000" stroke-width="1" stroke-opacity="0"></use></g></g><g><use xlink:href="#abNrkcIrc" opacity="1" fill="url(#gradiente7isWmLT7)"></use><g><use xlink:href="#abNrkcIrc" opacity="1" fill-opacity="0" stroke="#000000" stroke-width="1" stroke-opacity="0"></use></g></g><g><use xlink:href="#a6fJVPr54R" opacity="1" fill="#f2f2f2" fill-opacity="1"></use><g><use xlink:href="#a6fJVPr54R" opacity="1" fill-opacity="0" stroke="#000000" stroke-width="1" stroke-opacity="0"></use></g></g><g><use xlink:href="#bUSSahGTx" opacity="1" fill="#fed130" fill-opacity="1"></use><g><use xlink:href="#bUSSahGTx" opacity="1" fill-opacity="0" stroke="#000000" stroke-width="1" stroke-opacity="0"></use></g></g><g><use xlink:href="#blgnxzoDb" opacity="1" fill="#e64a45" fill-opacity="1"></use><g><use xlink:href="#blgnxzoDb" opacity="1" fill-opacity="0" stroke="#000000" stroke-width="1" stroke-opacity="0"></use></g></g><g><use xlink:href="#h3oz7aOCMa" opacity="1" fill="#51b84e" fill-opacity="1"></use><g><use xlink:href="#h3oz7aOCMa" opacity="1" fill-opacity="0" stroke="#000000" stroke-width="1" stroke-opacity="0"></use></g></g><g><use xlink:href="#c1q62Wpd4e" opacity="1" fill="#0d77b0" fill-opacity="1"></use><g><use xlink:href="#c1q62Wpd4e" opacity="1" fill-opacity="0" stroke="#ffffff" stroke-width="12" stroke-opacity="1"></use></g></g></g></g></svg>